<mxfile host="65bd71144e" pages="5">
    <diagram id="EtNm9FF6X-3ODy4SjIhC" name="Home">
        <mxGraphModel dx="1456" dy="802" grid="1" gridSize="10" guides="1" tooltips="1" connect="1" arrows="1" fold="1" page="1" pageScale="1" pageWidth="827" pageHeight="1169" math="0" shadow="0">
            <root>
                <mxCell id="xcEyomFVwvn7D0aUiw91-0"/>
                <mxCell id="xcEyomFVwvn7D0aUiw91-1" parent="xcEyomFVwvn7D0aUiw91-0"/>
                <mxCell id="BLegcr1bXetS_ptCZn9G-0" value="&lt;div&gt;&lt;span style=&quot;color: rgba(0 , 0 , 0 , 0) ; font-family: monospace ; font-size: 0px&quot;&gt;%3CmxGraphModel%3E%3Croot%3E%3CmxCell%20id%3D%220%22%2F%3E%3CmxCell%20id%3D%221%22%20parent%3D%220%22%2F%3E%3CmxCell%20id%3D%222%22%20value%3D%22Add%20item%22%20style%3D%22whiteSpace%3Dwrap%3Bhtml%3D1%3Baspect%3Dfixed%3B%22%20vertex%3D%221%22%20parent%3D%221%22%3E%3CmxGeometry%20x%3D%22402.5%22%20y%3D%22250%22%20width%3D%2280%22%20height%3D%2280%22%20as%3D%22geometry%22%2F%3E%3C%2FmxCell%3E%3C%2Froot%3E%3C%2FmxGraphModel%3E&lt;/span&gt;&lt;br&gt;&lt;/div&gt;" style="verticalLabelPosition=bottom;verticalAlign=top;html=1;shadow=0;dashed=0;strokeWidth=1;shape=mxgraph.android.phone2;strokeColor=#c0c0c0;" parent="xcEyomFVwvn7D0aUiw91-1" vertex="1">
                    <mxGeometry x="247.5" y="80" width="280" height="540" as="geometry"/>
                </mxCell>
                <mxCell id="BLegcr1bXetS_ptCZn9G-2" value="Header" style="text;html=1;strokeColor=none;fillColor=none;align=center;verticalAlign=middle;whiteSpace=wrap;rounded=0;" parent="xcEyomFVwvn7D0aUiw91-1" vertex="1">
                    <mxGeometry x="352.5" y="140" width="70" height="30" as="geometry"/>
                </mxCell>
                <mxCell id="BLegcr1bXetS_ptCZn9G-7" value="&lt;ul&gt;&lt;li&gt;Item 1&lt;/li&gt;&lt;li&gt;Item 2&lt;/li&gt;&lt;li&gt;Item 3&lt;/li&gt;&lt;li&gt;Item 4&lt;/li&gt;&lt;li&gt;Item 5&lt;/li&gt;&lt;/ul&gt;" style="rounded=1;whiteSpace=wrap;html=1;direction=south;align=left;" parent="xcEyomFVwvn7D0aUiw91-1" vertex="1">
                    <mxGeometry x="318.5" y="200" width="138" height="250" as="geometry"/>
                </mxCell>
                <mxCell id="o7q6VUiy_cesrPPZM_M3-0" value="" style="sketch=0;pointerEvents=1;shadow=0;dashed=0;html=1;strokeColor=none;fillColor=#505050;labelPosition=center;verticalLabelPosition=bottom;verticalAlign=top;outlineConnect=0;align=center;shape=mxgraph.office.concepts.writing_pen;" parent="xcEyomFVwvn7D0aUiw91-1" vertex="1">
                    <mxGeometry x="415" y="330" width="14" height="20" as="geometry"/>
                </mxCell>
                <mxCell id="o7q6VUiy_cesrPPZM_M3-1" value="" style="sketch=0;pointerEvents=1;shadow=0;dashed=0;html=1;strokeColor=none;fillColor=#505050;labelPosition=center;verticalLabelPosition=bottom;verticalAlign=top;outlineConnect=0;align=center;shape=mxgraph.office.concepts.writing_pen;" parent="xcEyomFVwvn7D0aUiw91-1" vertex="1">
                    <mxGeometry x="415" y="350" width="14" height="20" as="geometry"/>
                </mxCell>
                <mxCell id="o7q6VUiy_cesrPPZM_M3-2" value="" style="sketch=0;pointerEvents=1;shadow=0;dashed=0;html=1;strokeColor=none;fillColor=#505050;labelPosition=center;verticalLabelPosition=bottom;verticalAlign=top;outlineConnect=0;align=center;shape=mxgraph.office.concepts.writing_pen;" parent="xcEyomFVwvn7D0aUiw91-1" vertex="1">
                    <mxGeometry x="414" y="370" width="14" height="20" as="geometry"/>
                </mxCell>
                <mxCell id="o7q6VUiy_cesrPPZM_M3-3" value="" style="sketch=0;pointerEvents=1;shadow=0;dashed=0;html=1;strokeColor=none;fillColor=#505050;labelPosition=center;verticalLabelPosition=bottom;verticalAlign=top;outlineConnect=0;align=center;shape=mxgraph.office.concepts.writing_pen;" parent="xcEyomFVwvn7D0aUiw91-1" vertex="1">
                    <mxGeometry x="415" y="390" width="14" height="20" as="geometry"/>
                </mxCell>
                <mxCell id="o7q6VUiy_cesrPPZM_M3-4" value="" style="sketch=0;pointerEvents=1;shadow=0;dashed=0;html=1;strokeColor=none;fillColor=#505050;labelPosition=center;verticalLabelPosition=bottom;verticalAlign=top;outlineConnect=0;align=center;shape=mxgraph.office.concepts.writing_pen;" parent="xcEyomFVwvn7D0aUiw91-1" vertex="1">
                    <mxGeometry x="415" y="410" width="14" height="20" as="geometry"/>
                </mxCell>
                <mxCell id="SZnqoiL6_EiMQVeKlNE2-0" value="Add Item" style="rounded=1;whiteSpace=wrap;html=1;" parent="xcEyomFVwvn7D0aUiw91-1" vertex="1">
                    <mxGeometry x="341.25" y="510" width="92.5" height="45" as="geometry"/>
                </mxCell>
            </root>
        </mxGraphModel>
    </diagram>
    <diagram id="6oybD5asHyvLyP35SZ61" name="Add item">
        <mxGraphModel dx="1456" dy="802" grid="1" gridSize="10" guides="1" tooltips="1" connect="1" arrows="1" fold="1" page="1" pageScale="1" pageWidth="827" pageHeight="1169" math="0" shadow="0">
            <root>
                <mxCell id="DNtGfrfDivrr_IUyHh6b-0"/>
                <mxCell id="DNtGfrfDivrr_IUyHh6b-1" parent="DNtGfrfDivrr_IUyHh6b-0"/>
                <mxCell id="2qbssIr2wVkzotyTqTVe-1" value="" style="verticalLabelPosition=bottom;verticalAlign=top;html=1;shadow=0;dashed=0;strokeWidth=1;shape=mxgraph.android.phone2;strokeColor=#c0c0c0;" parent="DNtGfrfDivrr_IUyHh6b-1" vertex="1">
                    <mxGeometry x="240" y="80" width="280" height="540" as="geometry"/>
                </mxCell>
                <mxCell id="Knup_NkGSgt3Vw-mhnHq-1" value="Header" style="text;html=1;strokeColor=none;fillColor=none;align=center;verticalAlign=middle;whiteSpace=wrap;rounded=0;" parent="DNtGfrfDivrr_IUyHh6b-1" vertex="1">
                    <mxGeometry x="327.5" y="140" width="105" height="30" as="geometry"/>
                </mxCell>
                <mxCell id="Knup_NkGSgt3Vw-mhnHq-2" value="&lt;ul&gt;&lt;li&gt;Add Name&lt;/li&gt;&lt;li&gt;Add Price&lt;/li&gt;&lt;li&gt;Add Description&lt;/li&gt;&lt;li&gt;Add Category&lt;/li&gt;&lt;li&gt;Add image link&lt;/li&gt;&lt;/ul&gt;" style="rounded=1;whiteSpace=wrap;html=1;align=left;" parent="DNtGfrfDivrr_IUyHh6b-1" vertex="1">
                    <mxGeometry x="305" y="230" width="150" height="170" as="geometry"/>
                </mxCell>
                <mxCell id="Knup_NkGSgt3Vw-mhnHq-3" value="Return to home page" style="rounded=0;whiteSpace=wrap;html=1;" parent="DNtGfrfDivrr_IUyHh6b-1" vertex="1">
                    <mxGeometry x="320" y="490" width="120" height="60" as="geometry"/>
                </mxCell>
            </root>
        </mxGraphModel>
    </diagram>
    <diagram id="ZoDWijr4wKdM6BBAjusg" name="Edit item">
        <mxGraphModel dx="1456" dy="802" grid="1" gridSize="10" guides="1" tooltips="1" connect="1" arrows="1" fold="1" page="1" pageScale="1" pageWidth="827" pageHeight="1169" math="0" shadow="0">
            <root>
                <mxCell id="sjFCEKZpSLcH-V81rqJq-0"/>
                <mxCell id="sjFCEKZpSLcH-V81rqJq-1" parent="sjFCEKZpSLcH-V81rqJq-0"/>
                <mxCell id="wnOcdvL2XcoRvvCMk4fw-4" value="" style="verticalLabelPosition=bottom;verticalAlign=top;html=1;shadow=0;dashed=0;strokeWidth=1;shape=mxgraph.android.phone2;strokeColor=#c0c0c0;" vertex="1" parent="sjFCEKZpSLcH-V81rqJq-1">
                    <mxGeometry x="250" y="90" width="280" height="540" as="geometry"/>
                </mxCell>
                <mxCell id="wnOcdvL2XcoRvvCMk4fw-5" value="Header" style="text;html=1;strokeColor=none;fillColor=none;align=center;verticalAlign=middle;whiteSpace=wrap;rounded=0;" vertex="1" parent="sjFCEKZpSLcH-V81rqJq-1">
                    <mxGeometry x="337.5" y="150" width="105" height="30" as="geometry"/>
                </mxCell>
                <mxCell id="wnOcdvL2XcoRvvCMk4fw-6" value="&lt;ul&gt;&lt;li&gt;Edit Name&lt;/li&gt;&lt;li&gt;Edit Price&lt;/li&gt;&lt;li&gt;Edit Description&lt;/li&gt;&lt;li&gt;Edit Category&lt;/li&gt;&lt;li&gt;Edit image link&lt;/li&gt;&lt;/ul&gt;" style="rounded=1;whiteSpace=wrap;html=1;align=left;" vertex="1" parent="sjFCEKZpSLcH-V81rqJq-1">
                    <mxGeometry x="315" y="240" width="150" height="170" as="geometry"/>
                </mxCell>
                <mxCell id="wnOcdvL2XcoRvvCMk4fw-7" value="Return to home page" style="rounded=0;whiteSpace=wrap;html=1;" vertex="1" parent="sjFCEKZpSLcH-V81rqJq-1">
                    <mxGeometry x="330" y="500" width="120" height="60" as="geometry"/>
                </mxCell>
                <mxCell id="KIte4y2p_LI8EQSHfq0S-0" value="Submit" style="ellipse;whiteSpace=wrap;html=1;" vertex="1" parent="sjFCEKZpSLcH-V81rqJq-1">
                    <mxGeometry x="345" y="440" width="90" height="30" as="geometry"/>
                </mxCell>
            </root>
        </mxGraphModel>
    </diagram>
    <diagram id="ocXVbgHgwpfzxlpIKyi1" name="View item">
        <mxGraphModel dx="1456" dy="802" grid="1" gridSize="10" guides="1" tooltips="1" connect="1" arrows="1" fold="1" page="1" pageScale="1" pageWidth="827" pageHeight="1169" math="0" shadow="0">
            <root>
                <mxCell id="llHv5tLQ34S0l-LqSnNW-0"/>
                <mxCell id="llHv5tLQ34S0l-LqSnNW-1" parent="llHv5tLQ34S0l-LqSnNW-0"/>
                <mxCell id="llHv5tLQ34S0l-LqSnNW-2" value="" style="verticalLabelPosition=bottom;verticalAlign=top;html=1;shadow=0;dashed=0;strokeWidth=1;shape=mxgraph.android.phone2;strokeColor=#c0c0c0;" parent="llHv5tLQ34S0l-LqSnNW-1" vertex="1">
                    <mxGeometry x="230" y="130" width="280" height="540" as="geometry"/>
                </mxCell>
                <mxCell id="llHv5tLQ34S0l-LqSnNW-3" value="Item Img" style="whiteSpace=wrap;html=1;aspect=fixed;" parent="llHv5tLQ34S0l-LqSnNW-1" vertex="1">
                    <mxGeometry x="330" y="250" width="80" height="80" as="geometry"/>
                </mxCell>
                <mxCell id="llHv5tLQ34S0l-LqSnNW-4" value="Item Name" style="text;html=1;strokeColor=none;fillColor=none;align=center;verticalAlign=middle;whiteSpace=wrap;rounded=0;" parent="llHv5tLQ34S0l-LqSnNW-1" vertex="1">
                    <mxGeometry x="335" y="200" width="70" height="30" as="geometry"/>
                </mxCell>
                <mxCell id="llHv5tLQ34S0l-LqSnNW-5" value="&lt;ul&gt;&lt;li&gt;Price&lt;/li&gt;&lt;li&gt;Description&lt;/li&gt;&lt;li&gt;Category&lt;/li&gt;&lt;/ul&gt;" style="rounded=1;whiteSpace=wrap;html=1;align=left;" parent="llHv5tLQ34S0l-LqSnNW-1" vertex="1">
                    <mxGeometry x="310" y="360" width="120" height="170" as="geometry"/>
                </mxCell>
                <mxCell id="llHv5tLQ34S0l-LqSnNW-6" value="Return to home page" style="rounded=0;whiteSpace=wrap;html=1;" parent="llHv5tLQ34S0l-LqSnNW-1" vertex="1">
                    <mxGeometry x="315" y="559.5" width="110" height="50" as="geometry"/>
                </mxCell>
            </root>
        </mxGraphModel>
    </diagram>
</mxfile>